name C:\Users\Nicos\Documents\OpenSimProjects\SprintingProject\Study1\PredictiveResults\IC_pred_Sprinting_optimum_26-October-2023__10-52-28___Nominal_p02_maxVel_01.mot
datacolumns 38
datarows 7
range 0.05600000 0.06285707
endheader
                time	/jointset/ground_pelvis/pelvis_tilt/value	/jointset/ground_pelvis/pelvis_list/value	/jointset/ground_pelvis/pelvis_rotation/value	/jointset/ground_pelvis/pelvis_tx/value	/jointset/ground_pelvis/pelvis_ty/value	/jointset/ground_pelvis/pelvis_tz/value	/jointset/hip_r/hip_flexion_r/value	/jointset/hip_r/hip_adduction_r/value	/jointset/hip_r/hip_rotation_r/value	/jointset/knee_r/knee_angle_r/value	/jointset/ankle_r/ankle_angle_r/value	/jointset/subtalar_r/subtalar_angle_r/value	/jointset/mtp_r/mtp_angle_r/value	/jointset/hip_l/hip_flexion_l/value	/jointset/hip_l/hip_adduction_l/value	/jointset/hip_l/hip_rotation_l/value	/jointset/knee_l/knee_angle_l/value	/jointset/ankle_l/ankle_angle_l/value	/jointset/subtalar_l/subtalar_angle_l/value	/jointset/mtp_l/mtp_angle_l/value	/jointset/back/lumbar_extension/value	/jointset/back/lumbar_bending/value	/jointset/back/lumbar_rotation/value	/jointset/acromial_r/arm_flex_r/value	/jointset/acromial_r/arm_add_r/value	/jointset/acromial_r/arm_rot_r/value	/jointset/elbow_r/elbow_flex_r/value	/jointset/radioulnar_r/pro_sup_r/value	/jointset/radius_hand_r/wrist_flex_r/value	/jointset/radius_hand_r/wrist_dev_r/value	/jointset/acromial_l/arm_flex_l/value	/jointset/acromial_l/arm_add_l/value	/jointset/acromial_l/arm_rot_l/value	/jointset/elbow_l/elbow_flex_l/value	/jointset/radioulnar_l/pro_sup_l/value	/jointset/radius_hand_l/wrist_flex_l/value	/jointset/radius_hand_l/wrist_dev_l/value	
          0.05600000	         -7.90429702	         -3.63816928	         -6.12248862	         -0.00000000	          0.99672333	          0.30570711	         35.04375590	          4.03658172	          0.51704555	        -17.48495521	        -22.98717601	        -14.90636564	          0.56042343	         26.19848057	        -10.90457135	          0.74718669	       -118.53295336	         -9.38777322	        -19.43431073	         -3.54914871	        -17.15732438	          7.70426733	         -3.36651245	         -6.09382177	        -25.71690760	        -14.29836365	         97.62479971	         76.99334912	        -23.37888484	          5.24065468	         -0.45028271	        -21.39191315	        -13.99101127	         73.51448847	         73.30691885	        -18.37218083	          5.63635798	
          0.05664634	         -7.99962151	         -3.56324168	         -6.41289409	          0.00773787	          0.99623587	          0.30588996	         34.74710144	          4.08621933	          0.45679126	        -17.33134544	        -22.40895144	        -14.36542809	          0.81723166	         26.65693018	        -10.93627149	          0.60601195	       -118.88368464	         -9.20838218	        -19.50007268	         -3.45809707	        -17.01797410	          7.61585780	         -3.15189351	         -5.13212622	        -25.65715231	        -14.19882556	         97.87443720	         77.11403643	        -23.44274977	          5.25437960	         -0.99134928	        -21.15222840	        -13.81842391	         73.33226885	         73.01944528	        -18.26958991	          5.69239109	
          0.05868851	         -8.29905716	         -3.30756587	         -7.34619003	          0.03220635	          0.99460667	          0.30646860	         33.80453978	          4.22553239	          0.35680979	        -16.87914166	        -20.48401118	        -12.83727711	          1.57499426	         28.11290535	        -11.04500414	          0.15068562	       -119.97676669	         -8.65137143	        -19.69974392	         -3.35619799	        -16.56660402	          7.32420909	         -2.44387011	         -2.09309236	        -25.44877203	        -13.86561043	         98.63321774	         77.38460869	        -23.65680782	          5.26270786	         -2.69054494	        -20.39444659	        -13.17732590	         72.83214438	         72.24676733	        -17.96340810	          5.92128204	
          0.06016856	         -8.51267623	         -3.10437536	         -8.03533612	          0.04996003	          0.99334436	          0.30688555	         33.11593446	          4.30641906	          0.36922639	        -16.59031738	        -19.02403650	        -11.91100558	          2.17080014	         29.17383829	        -11.13180508	         -0.18653527	       -120.75391303	         -8.25774473	        -19.83884384	         -3.45773126	        -16.23049246	          7.10209885	         -1.90367205	          0.10447476	        -25.27882695	        -13.61720592	         99.16292410	         77.55504073	        -23.82359755	          5.25370785	         -3.91460574	        -19.84524994	        -12.63053514	         72.53588976	         71.76094585	        -17.74752904	          6.10639321	
          0.06016856	         -8.51267623	         -3.10437536	         -8.03533612	          0.04996003	          0.99334436	          0.30688555	         33.11593446	          4.30641906	          0.36922639	        -16.59031738	        -19.02403650	        -11.91100558	          2.17080014	         29.17383829	        -11.13180508	         -0.18653527	       -120.75391303	         -8.25774473	        -19.83884384	         -3.45773126	        -16.23049246	          7.10209885	         -1.90367205	          0.10447476	        -25.27882695	        -13.61720592	         99.16292410	         77.55504073	        -23.82359755	          5.25370785	         -3.91460574	        -19.84524994	        -12.63053514	         72.53588976	         71.76094585	        -17.74752904	          6.10639321	
          0.06081490	         -8.60462016	         -3.01098675	         -8.33906066	          0.05771871	          0.99277245	          0.30706616	         32.81374308	          4.33553909	          0.39649969	        -16.47697633	        -18.37244206	        -11.55471246	          2.44453418	         29.63831424	        -11.17175021	         -0.33528342	       -121.08912368	         -8.08909074	        -19.89890058	         -3.53920683	        -16.08177395	          7.00249008	         -1.66102936	          1.06150189	        -25.19955831	        -13.50970448	         99.39114150	         77.63795609	        -23.89950190	          5.25027270	         -4.44796892	        -19.60540451	        -12.37296416	         72.42335508	         71.55702141	        -17.65235552	          6.18734724	
          0.06285707	         -8.88904944	         -2.69745540	         -9.30612411	          0.08225828	          0.99088373	          0.30762482	         31.85280013	          4.39758724	          0.56380677	        -16.17926626	        -16.24320181	        -10.56356340	          3.60408926	         31.11076278	        -11.30536009	         -0.80794947	       -122.13098092	         -7.57804755	        -20.09335074	         -3.77085331	        -15.60417633	          6.67906587	         -0.86964730	          4.06843295	        -24.92916604	        -13.18546666	        100.10909944	         77.91636146	        -24.15162833	          5.24273752	         -6.13224424	        -18.84741309	        -11.49643475	         72.14082374	         70.93898994	        -17.35004287	          6.46492653	
